<svg height="511pt" viewBox="0 -4 511.33443 511" width="511pt" xmlns="http://www.w3.org/2000/svg"><path d="m489.753906 368.738281c-13.347656 7.355469-27.078125 13.992188-41.128906 19.882813-.257812-2.046875-7.722656-.980469-8.066406-3.539063-.171875-1.027343-.273438-3.414062-.359375-4.625-.765625-4.4375-20.121094-7.535156-20.972657-13.511719 18.347657-14.25 21.800782-50.285156 11.734376-60.441406.082031-26.023437 15.101562-36.070312 20.050781-53.476562 12.183593 31.695312 27.148437 62.25 44.714843 91.304687 2.644532 3.976563 3.503907 8.878907 2.371094 13.515625-1.136718 4.636719-4.160156 8.585938-8.34375 10.890625zm0 0" fill="#c52828"/><path d="m134.066406 360.1875c-.167968 1.28125-1.601562 10.019531-1.773437 11.382812-.511719 2.988282-1.792969 4.824219-2.132813 7.46875-.511718 3.839844-7.167968 5.914063-7.597656 8.816407-14.761719-6.230469-29.097656-13.398438-39.761719-19.117188-4.304687-2.226562-7.445312-6.191406-8.636719-10.886719-1.191406-4.699218-.316406-9.679687 2.40625-13.6875 17.609376-27.5 32.308594-56.753906 43.859376-87.296874.171874-.425782.257812-.855469.429687-1.195313 4.519531 16.46875 31.570313 37.65625 32.058594 60.785156-10.496094 9.300781-45.371094 27.261719-18.851563 43.730469zm0 0" fill="#c52828"/><path d="m458.777344 165.816406c-27.734375 1.792969-83.796875-7.59375-146.429688-6.230468-29.199218.394531-58.265625 3.941406-86.699218 10.582031-36.867188 9.046875-68.867188 49.410156-101.292969 63.488281-1.621094.769531-3.328125 1.621094-5.035157 2.304688l-.597656.511718c.339844 6.433594 1.054688 12.847656 2.136719 19.199219 4.820313 20.125 7.933594 40.621094 9.300781 61.269531 2.558594-2.304687-5.121094 12.289063-4.609375 11.945313-.683593.683593.683594-.339844-.9375 3.757812-3.328125 8.445313 3.582031 17.664063 36.863281 23.210938.9375.167969 1.792969.253906 2.644532.339843 41.386718 5.972657 54.441406-16.300781 72.535156-23.894531 3.683594-1.621093 7.664062-2.460937 11.691406-2.472656 8.433594-.101563 16.597656 2.976563 22.867188 8.617187 5.289062 4.769532 9.355468 10.742188 11.863281 17.410157.207031.527343.378906 1.066406.511719 1.621093.128906-.554687.300781-1.09375.511718-1.621093 3.847657-10.367188 11.59375-18.820313 21.589844-23.554688 4.179688-1.660156 8.640625-2.5 13.140625-2.472656 20.648438 0 30.378907 21.671875 59.390625 26.367187 9.113282 1.457032 18.40625 1.34375 27.476563-.339843 48.8125-8.195313 40.109375-21.589844 37.378906-24.492188 1.023437.683594-6.316406-14.933593-2.136719-10.667969.320313-22.933593 3.707032-45.71875 10.070313-67.753906 2.714843-9.019531 4.878906-18.195312 6.484375-27.476562 1.253906-9.425782 1.992187-18.910156 2.21875-28.417969.257812-3.410156.34375-6.824219.34375-10.324219.003906-6.988281-.421875-13.972656-1.28125-20.90625zm0 0" fill="#bfa885"/><path d="m433.945312 165.816406c-23.976562 1.621094-69.203124-5.289062-121.597656-6.230468-29.199218.394531-58.265625 3.941406-86.699218 10.582031-36.867188 9.046875-68.867188 49.410156-101.292969 63.488281-1.621094.769531-3.328125 1.621094-5.035157 2.304688l-.597656.511718c.339844 6.433594 1.054688 12.847656 2.136719 19.199219 4.820313 20.125 7.933594 40.621094 9.300781 61.269531 2.558594-2.304687-5.121094 12.289063-4.609375 11.945313-.683593.683593.683594-.339844-.9375 3.757812-3.328125 8.445313 3.582031 17.664063 36.863281 23.210938.9375.167969 1.792969.253906 2.644532.339843 28.929687-4.695312 38.742187-26.367187 59.394531-26.367187 4.5-.042969 8.964844.796875 13.140625 2.472656 3.683594-1.621093 7.664062-2.460937 11.691406-2.472656 8.433594-.101563 16.597656 2.976563 22.867188 8.617187 6.238281-5.640624 14.375-8.71875 22.785156-8.617187 4.023438.011719 8.003906.851563 11.691406 2.472656 18.003906 7.59375 31.058594 29.867188 72.53125 23.894531.855469-.085937 1.707032-.171874 2.644532-.339843 48.8125-8.195313 40.109374-21.589844 37.378906-24.492188 1.023437.683594-6.316406-14.933593-2.136719-10.667969.320313-22.933593 3.707031-45.71875 10.070313-67.753906 2.703124-9.027344 4.894531-18.203125 6.570312-27.476562 1.453125-9.386719 1.621094-18.945313 2.132812-28.417969.257813-3.410156.34375-6.824219.34375-10.324219.003907-6.988281-.421874-13.972656-1.28125-20.90625zm0 0" fill="#ffe0b2"/><path d="m119.320312 235.960938c-.679687-2.476563-1.363281-4.949219-1.875-7.425782-.597656-2.644531-1.195312-5.203125-1.707031-7.847656-.511719-2.648438-.9375-5.207031-1.28125-7.851562-.339843-2.644532-.683593-5.292969-.9375-7.851563-.171875-2.21875-.425781-4.4375-.511719-6.65625-.257812-3.070313-.34375-6.230469-.34375-9.386719-17.136718-2.910156-34.699218-2.183594-51.539062 2.132813-20.90625 5.207031-38.570312 10.15625-49.410156 13.3125-1.785156.476562-3.0625 2.050781-3.160156 3.898437-.097657 1.847656 1.007812 3.546875 2.734374 4.207032 21.378907 8.519531 44.144532 13.035156 67.15625 13.3125-16.78125 17.199218-30.363281 37.253906-40.105468 59.222656-.625 1.695312-.132813 3.597656 1.234375 4.777344 1.371093 1.179687 3.328125 1.382812 4.910156.511718 2.304687-1.195312 4.609375-2.472656 6.910156-3.753906 3.074219-1.621094 6.058594-3.328125 9.046875-5.035156 3.414063-1.875 6.828125-3.839844 10.15625-5.800782 3.582032-2.132812 7.167969-4.351562 10.75-6.570312 3.585938-2.21875 7.167969-4.609375 10.753906-7 3.582032-2.386719 6.996094-4.691406 10.410157-7.253906 3.242187-2.300782 6.398437-4.777344 9.472656-7.335938 1.109375-.941406 2.21875-1.878906 3.328125-2.902344l2.132812-1.878906c.597657-.414062 1.140626-.902344 1.621094-1.449218zm0 0" fill="#c52828"/><path d="m234.351562 269.15625c.023438 14.394531-11.628906 26.085938-26.027343 26.109375-14.398438.023437-26.089844-11.628906-26.113281-26.023437-.023438-14.398438 11.628906-26.089844 26.027343-26.113282 14.390625 0 26.066407 11.636719 26.113281 26.027344zm0 0" fill="#cfd8dc"/><path d="m350.25 391.351562c0 34.714844-30.601562 31.421876-68.207031 31.421876s-68.105469 3.292968-68.105469-31.421876c-.027344-3.078124.257812-6.152343.855469-9.171874 52.054687-1.035157 66.140625-17 69.121093-29.261719 2.984376 11.945312 16.382813 27.511719 65.527344 29.160156.53125 3.0625.804688 6.164063.808594 9.273437zm0 0" fill="#ffe0b2"/><path d="m458.777344 165.816406c-77.015625 4.9375-153.5 16.152344-228.691406 33.535156-36.132813 8.484376-71.5 19.960938-105.730469 34.304688-1.621094.769531-3.328125 1.621094-5.035157 2.304688-.851562-2.988282-1.621093-5.972657-2.21875-8.960938-2.871093-12.484375-4.355468-25.246094-4.4375-38.058594-.070312-.738281-.097656-1.476562-.082031-2.21875-1.03125-92.667968 69.914063-170.289062 162.300781-177.578125 3.757813-.257812 7.597657-.425781 11.4375-.425781 89.078126.867188 163.304688 68.484375 172.457032 157.097656zm0 0" fill="#c52828"/><path d="m435.226562 165.816406c-77.015624 4.9375-153.503906 16.152344-228.695312 33.535156-30.375 7.277344-60.246094 16.511719-89.429688 27.648438-2.871093-12.484375-4.355468-25.246094-4.4375-38.058594-.070312-.738281-.097656-1.476562-.082031-2.21875-1.03125-92.667968 69.914063-170.289062 162.300781-177.578125 84.195313 6.820313 151.578126 72.660157 160.34375 156.671875zm0 0" fill="#f44335"/><path d="m409.625 238.945312c0 32.992188-26.742188 59.734376-59.734375 59.734376-28.273437 0-51.199219-22.921876-51.199219-51.199219v-8.535157c0-4.710937 3.820313-8.53125 8.535156-8.53125h93.867188c4.710938 0 8.53125 3.820313 8.53125 8.53125zm0 0" fill="#607d8b"/><path d="m448.625 388.621094c-.257812-2.046875-.597656-4.351563-.941406-6.910156-.167969-1.023438-.339844-2.050782-.425782-3.242188-.769531-4.4375-1.449218-9.558594-2.304687-15.53125-6.507813 4.582031-13.75 8.015625-21.417969 10.152344-17.148437 4.875-34.773437 7.878906-52.566406 8.960937-11.003906 1.015625-22.0625 1.359375-33.109375 1.023438.449219 2.535156.675781 5.105469.683594 7.679687 0 28.757813-25.34375 26.027344-56.492188 26.027344h-4.007812c-4.695313.085938-9.644531 0-14.847657 0h-.597656c-21.503906-.253906-36.949218-3.5-36.949218-26.027344-.03125-2.546875.195312-5.089844.679687-7.59375-10.050781.136719-20.105469-.234375-30.121094-1.109375-36.609375-3.070312-58.367187-9.214843-70.398437-16.640625-.171875 1.28125-.34375 2.476563-.511719 3.839844-.257813 1.707031-.515625 3.328125-.769531 4.949219-.171875 1.195312-.339844 2.476562-.511719 3.585937-.511719 3.839844-1.023437 7.167969-1.453125 10.070313-1.023438 7.082031-1.621094 11.6875-2.046875 14.675781.933594 6.816406 2.953125 13.445312 5.972656 19.625 4.46875 9.320312 10.972657 17.511719 19.03125 23.980469 36.4375 29.179687 81.125 46.164062 127.742188 48.554687 3.839843.171875 7.597656.253906 11.4375.253906 50.566406.027344 99.628906-17.191406 139.09375-48.808593 15.5-12.386719 24.894531-30.867188 25.769531-50.6875v-.085938c-.257812-1.964843-.597656-4.183593-.9375-6.742187zm0 0" fill="#795548"/><path d="m449.5625 395.363281v.085938c-.875 19.820312-10.269531 38.300781-25.769531 50.6875-39.464844 31.617187-88.527344 48.835937-139.09375 48.808593-3.839844 0-7.597657-.082031-11.4375-.253906 46.589843-2.410156 91.246093-19.394531 127.660156-48.554687 15.5-12.386719 24.894531-30.867188 25.769531-50.6875v-.085938c-.253906-1.964843-.597656-4.183593-.9375-6.742187-.257812-2.046875-.597656-4.351563-.9375-6.910156-.171875-1.023438-.34375-2.050782-.429687-3.242188-.253907-1.707031-.59375-3.5-.851563-5.378906 7.667969-2.136719 14.910156-5.570313 21.417969-10.152344.855469 5.972656 1.535156 11.09375 2.304687 15.53125.085938 1.191406.257813 2.21875.425782 3.242188.34375 2.558593.683594 4.863281.941406 6.910156.339844 2.558594.679688 4.777344.9375 6.742187zm0 0" fill="#4e342e"/><path d="m444.953125 362.9375c-11.09375 8.53125-33.363281 15.785156-73.984375 19.113281-11.003906 1.015625-22.0625 1.359375-33.109375 1.023438-40.703125-1.363281-51.796875-14.25-54.269531-24.148438-2.476563 10.15625-14.167969 23.382813-57.261719 24.234375-10.050781.136719-20.105469-.234375-30.121094-1.109375-36.609375-3.070312-58.367187-9.214843-70.398437-16.640625-26.539063-16.46875-6.144532-39.167968 4.351562-48.46875 1.625-1.488281 3.335938-2.886718 5.117188-4.179687-2.171875 2.3125-3.90625 5-5.117188 7.933593-3.328125 8.449219-1.964844 21.078126 31.316406 26.625 52.054688 8.703126 60.757813-26.027343 86.871094-26.027343 26.109375 0 34.730469 26.027343 34.730469 26.027343.207031.527344.378906 1.070313.511719 1.621094.128906-.550781.300781-1.09375.511718-1.621094 0 0 8.703126-26.027343 34.730469-26.027343 26.027344 0 34.730469 34.730469 86.867188 26.027343 48.8125-8.191406 29.015625-31.574218 26.285156-34.476562 3.203125 2.359375 6.199219 4.988281 8.957031 7.851562 10.070313 10.15625 22.359375 27.992188 4.011719 42.242188zm0 0" fill="#795548"/><path d="m284.679688 503.480469c-52.542969.089843-103.542969-17.789063-144.527344-50.671875-9.03125-7.269532-16.320313-16.46875-21.335938-26.921875-3.375-7.003907-5.652344-14.488281-6.746094-22.1875-.113281-.796875-.113281-1.605469 0-2.40625l3.554688-24.746094c.242188-1.792969.53125-3.804687.855469-5.90625l.894531-6.414063c.382812-3.046874 2.367188-5.652343 5.199219-6.828124 2.835937-1.175782 6.085937-.738282 8.507812 1.144531 2.421875 1.882812 3.648438 4.921875 3.207031 7.960937l-.921874 6.585938c-.289063 2.015625-.570313 3.945312-.808594 5.785156l-3.414063 23.621094c.910157 5.539062 2.617188 10.914062 5.058594 15.964844 3.910156 8.164062 9.601563 15.34375 16.648437 21.019531 78.195313 62.664062 189.410157 62.664062 267.605469 0 13.363281-10.714844 21.558594-26.589844 22.554688-43.691407-.359375-2.441406-.761719-5.351562-1.230469-8.746093l-.578125-4.148438c-.1875-1.167969-.386719-2.40625-.488281-3.71875-.324219-1.980469-.722656-4.789062-1.160156-7.835937l-1.03125-7.132813c-.6875-4.664062 2.535156-9 7.195312-9.6875 4.664062-.691406 9.003906 2.53125 9.691406 7.195313l1.042969 7.210937c.425781 2.988281.851563 5.726563 1.210937 8.285157.136719 1.460937.261719 2.21875.390626 2.988281l.632812 4.515625c.511719 3.710937.9375 6.824218 1.320312 9.386718.0625.417969.09375.84375.097657 1.269532-.914063 22.433594-11.476563 43.375-28.972657 57.445312-40.96875 32.859375-91.933593 50.734375-144.453124 50.664063zm0 0"/><path d="m440.976562 329.210938c-4.710937 0-8.53125-3.820313-8.53125-8.53125.367188-25.097657 4.226563-50.019532 11.457032-74.054688-.339844-.929688-.519532-1.441406-.671875-1.96875-.53125-1.664062-.53125-3.453125 0-5.121094 5.503906-17.078125 8.292969-34.917968 8.269531-52.863281 1.042969-92.347656-72.828125-168.128906-165.171875-169.4375-92.371094 1.289063-166.273437 77.089844-165.214844 169.464844v1.203125c.039063.332031.0625.667968.070313 1.003906.066406 12.214844 1.480468 24.386719 4.207031 36.292969 3.792969.4375 6.835937 3.339843 7.449219 7.113281.609375 3.769531-1.359375 7.488281-4.824219 9.101562-1.765625.851563-3.617187 1.707032-5.375 2.40625-2.25.945313-4.800781.878907-7-.179687-2.203125-1.058594-3.84375-3.011719-4.511719-5.359375-4.519531-15.886719-6.875-32.3125-6.996094-48.828125-.078124-.851563-.09375-1.78125-.09375-2.714844-1.066406-101.808593 80.480469-185.273437 182.289063-186.570312 101.789063 1.300781 183.324219 84.738281 182.28125 186.53125.023437 18.757812-2.75 37.417969-8.226563 55.363281l.050782.160156c.296875.804688.476562 1.316406.640625 1.863282.457031 1.582031.445312 3.269531-.042969 4.84375-7.246094 23.253906-11.125 47.421874-11.519531 71.773437-.015625 4.703125-3.832031 8.507813-8.535157 8.507813zm0 0"/><path d="m130.203125 329.296875c-2.191406 0-4.296875-.84375-5.878906-2.355469-2.59375-2.394531-3.441407-6.140625-2.136719-9.417968 1.304688-3.277344 4.492188-5.417969 8.023438-5.378907 4.710937 0 8.53125 3.820313 8.53125 8.535157v.554687c-.246094 4.527344-3.996094 8.070313-8.53125 8.0625zm0 0"/><path d="m130.117188 325.476562c-4.648438 0-8.441407-3.71875-8.535157-8.363281-.691406-22.28125-4.308593-44.371093-10.757812-65.707031-.503907-1.714844-.457031-3.546875.136719-5.230469.800781-2.332031 1.609374-4.574219 2.414062-6.71875 1.019531-2.917969 3.539062-5.058593 6.585938-5.589843 3.046874-.53125 6.140624.625 8.09375 3.023437 1.949218 2.402344 2.449218 5.667969 1.300781 8.542969-.449219 1.214844-.90625 2.46875-1.371094 3.761718 6.414063 21.984376 10.007813 44.695313 10.691406 67.585938.042969 2.261719-.816406 4.449219-2.382812 6.082031-1.570313 1.628907-3.726563 2.570313-5.988281 2.613281zm0 0"/><path d="m121.351562 250.980469c-3.492187 0-6.632812-2.132813-7.925781-5.378907-.445312-1.109374-.792969-2.21875-1.117187-3.335937-.324219-1.117187-.8125-2.671875-1.203125-4.144531-1.09375-4.121094 1.015625-8.414063 4.949219-10.0625 1.535156-.640625 3.15625-1.375 4.691406-2.097656 3.933594-1.863282 8.636718-.464844 10.917968 3.238281 2.28125 3.707031 1.40625 8.535156-2.027343 11.207031 1.015625 4.132812-1.167969 8.378906-5.117188 9.957031-1.007812.410157-2.082031.617188-3.167969.617188zm0 0"/><path d="m124.398438 242.214844c-4.050782.015625-7.554688-2.824219-8.382813-6.789063-.828125-3.96875 1.25-7.96875 4.96875-9.578125 114.066406-49.492187 273.539063-64.253906 336.804687-68.324218 3.046876-.195313 5.96875 1.25 7.660157 3.792968 1.695312 2.542969 1.902343 5.792969.546875 8.53125-1.355469 2.738282-4.066406 4.546875-7.117188 4.742188-62.367187 4.007812-219.492187 18.558594-331.09375 66.953125-1.070312.453125-2.222656.679687-3.386718.671875zm0 0"/><path d="m42.375 299.378906c-3.1875 0-6.261719-1.1875-8.617188-3.335937-3.996093-3.535157-5.335937-9.203125-3.34375-14.15625 7.398438-17.617188 17.472657-33.992188 29.867188-48.539063-17.871094-1.988281-35.402344-6.332031-52.132812-12.917968-5.140626-2.003907-8.417969-7.078126-8.132813-12.589844.289063-5.511719 4.074219-10.21875 9.398437-11.679688 8.855469-2.558594 27.246094-7.796875 49.609376-13.363281 18.011718-4.59375 36.785156-5.359375 55.109374-2.253906 3.003907.539062 5.488282 2.636719 6.523438 5.503906 1.039062 2.867187.464844 6.070313-1.5 8.398437-1.964844 2.332032-5.023438 3.4375-8.027344 2.902344-15.945312-2.6875-32.277344-2.003906-47.949218 1.996094-14.242188 3.550781-26.835938 6.945312-36.359376 9.601562 16.683594 5.347657 34.074219 8.152344 51.59375 8.328126 3.460938-.023438 6.59375 2.046874 7.929688 5.238281 1.335938 3.195312.609375 6.878906-1.839844 9.328125-12.964844 13.472656-24.089844 28.609375-33.074218 45.011718 22.371093-11.757812 43.347656-26 62.53125-42.453124.148437-.144532.386718-.351563.640624-.570313 2.449219-2.402344 6.097657-3.101563 9.261719-1.78125 3.167969 1.320313 5.230469 4.410156 5.246094 7.839844v.085937c0 2.628906-1.214844 5.113282-3.292969 6.730469-20.753906 20.257813-60.929687 42.503906-77.289062 51.199219-1.898438.988281-4.011719 1.496094-6.152344 1.476562zm3.960938-11.355468v.066406zm-32.136719-75.46875h-.09375zm.101562-8.046876.121094.050782zm0 0"/><path d="m120.5 411.089844c-.417969 0-.832031-.027344-1.246094-.085938-2.242187-.324218-4.261718-1.527344-5.617187-3.339844-1.351563-1.816406-1.929688-4.09375-1.601563-6.335937l3.558594-24.746094c.238281-1.792969.527344-3.808593.851562-5.90625l.898438-6.417969c.378906-3.042968 2.363281-5.652343 5.199219-6.824218 2.832031-1.175782 6.082031-.738282 8.503906 1.144531s3.648437 4.921875 3.207031 7.960937l-.921875 6.585938c-.289062 2.015625-.570312 3.941406-.808593 5.785156l-3.574219 24.882813c-.617188 4.191406-4.214844 7.300781-8.449219 7.296875zm0 0"/><path d="m449.5625 403.886719c-4.222656-.003907-7.808594-3.09375-8.433594-7.269531-.390625-2.558594-.851562-5.777344-1.347656-9.574219l-.578125-4.148438c-.1875-1.167969-.386719-2.40625-.488281-3.71875-.324219-1.980469-.722656-4.789062-1.160156-7.835937l-1.03125-7.132813c-.6875-4.664062 2.535156-9 7.195312-9.6875 4.664062-.691406 9.003906 2.53125 9.691406 7.195313l1.042969 7.210937c.425781 2.988281.851563 5.726563 1.210937 8.285157.136719 1.460937.261719 2.21875.390626 2.988281l.632812 4.515625c.511719 3.710937.9375 6.824218 1.320312 9.386718.699219 4.65625-2.507812 9-7.167968 9.699219-.421875.0625-.851563.089844-1.277344.085938zm0 0"/><path d="m118.058594 397.113281 3.414062-7.835937-3.542968 7.765625c-.714844-.304688-1.425782-.621094-2.039063-.929688-15.683594-6.59375-31.195313-14.4375-41.367187-19.78125-6.464844-3.414062-11.175782-9.417969-12.957032-16.511719-1.746094-7.035156-.417968-14.484374 3.664063-20.480468 17.226562-26.898438 31.605469-55.523438 42.894531-85.410156.949219-2.6875 1.929688-5.433594 2.910156-8.019532 1.734375-4.316406 6.605469-6.453125 10.953125-4.796875 4.347657 1.652344 6.570313 6.484375 4.996094 10.863281-.929687 2.46875-1.867187 5.121094-2.796875 7.722657-11.792969 31.226562-26.808594 61.136719-44.800781 89.25-1.359375 1.957031-1.800781 4.410156-1.210938 6.714843.585938 2.390626 2.179688 4.410157 4.367188 5.539063 9.875 5.222656 24.917969 12.800781 40.523437 19.429687l1.621094.734376zm0 0"/><path d="m451.4375 397.8125c-4.082031.007812-7.601562-2.875-8.390625-6.882812-.792969-4.007813 1.367187-8.011719 5.148437-9.554688 14.269532-5.957031 28.210938-12.667969 41.761719-20.109375 2.054688-1.109375 3.542969-3.03125 4.105469-5.292969.597656-2.390625.160156-4.921875-1.203125-6.972656-19.09375-31.644531-35.160156-65.019531-47.984375-99.683594-1.570312-4.433594.742188-9.300781 5.167969-10.886718 4.429687-1.585938 9.304687.710937 10.902343 5.132812 12.320313 33.410156 27.773438 65.582031 46.15625 96.078125 3.953126 6.046875 5.207032 13.46875 3.464844 20.480469-1.734375 6.875-6.257812 12.714844-12.484375 16.109375-14.105469 7.738281-28.609375 14.722656-43.453125 20.925781-1.011718.421875-2.09375.644531-3.191406.65625zm0 0"/><path d="m208.238281 303.800781c-19.101562 0-34.585937-15.484375-34.585937-34.585937 0-19.101563 15.484375-34.585938 34.585937-34.585938 19.101563 0 34.585938 15.484375 34.585938 34.585938-.019531 19.09375-15.492188 34.566406-34.585938 34.585937zm0-52.105469c-9.675781 0-17.519531 7.84375-17.519531 17.519532 0 9.675781 7.84375 17.519531 17.519531 17.519531s17.519531-7.84375 17.519531-17.519531c.003907-9.683594-7.835937-17.535156-17.519531-17.542969zm0 0"/><path d="m349.890625 307.214844c-32.972656-.039063-59.695313-26.761719-59.730469-59.734375v-8.535157c0-9.425781 7.640625-17.066406 17.066406-17.066406h93.867188c9.425781 0 17.066406 7.640625 17.066406 17.066406-.042968 37.6875-30.582031 68.226563-68.269531 68.269532zm-42.664063-68.269532v8.535157c.027344 23.550781 19.113282 42.636719 42.664063 42.667969 28.265625-.03125 51.171875-22.9375 51.203125-51.203126zm0 0"/><path d="m296.722656 249.441406c-1.59375 0-3.15625-.445312-4.507812-1.285156l-66.644532-41.566406c-4.007812-2.496094-5.230468-7.761719-2.738281-11.769532 2.492188-4.003906 7.761719-5.230468 11.765625-2.738281l66.644532 41.558594c3.238281 2.011719 4.746093 5.929687 3.695312 9.59375s-4.402344 6.1875-8.214844 6.183594zm0 0"/><path d="m409.121094 243.554688c-3.671875 0-6.933594-2.351563-8.09375-5.835938s.035156-7.320312 2.976562-9.523438l50.601563-37.972656c2.4375-1.832031 5.667969-2.21875 8.472656-1.023437 2.800781 1.199219 4.753906 3.800781 5.117187 6.828125.367188 3.027344-.910156 6.019531-3.351562 7.847656l-50.601562 37.972656c-1.476563 1.109375-3.273438 1.707032-5.121094 1.707032zm0 0"/><path d="m221.378906 391.695312c-7.964844 0-16.589844-.386718-25.878906-1.152343-55.058594-4.59375-84.601562-16.828125-90.308594-37.402344-6.589844-23.742187 21.980469-45.074219 25.242188-47.464844 3.605468-2.59375 8.601562-1.988281 11.480468 1.398438 2.882813 3.382812 2.683594 8.410156-.457031 11.558593-1.578125 1.636719-4.804687 6.320313-3.824219 9.324219 1.144532 3.457031 8.363282 8.152344 25.242188 10.957031 19.265625 4.226563 39.402344-.753906 54.476562-13.472656 8.679688-7.480468 19.558594-11.9375 30.996094-12.691406 19.402344.679688 36.375 13.257812 42.664063 31.625 3.148437 9.140625 1.597656 19.246094-4.15625 27.019531-9.972657 13.523438-31.957031 20.300781-65.476563 20.300781zm-97.746094-53.675781c-1.976562 3.160157-2.6875 6.945313-1.988281 10.605469 1.601563 5.742188 12.148438 19.679688 75.269531 24.933594 54.613282 4.53125 71.109376-5.628906 76.09375-12.097656 2.476563-3.132813 3.246094-7.285157 2.054688-11.09375l-.101562-.289063c-3.9375-11.527344-14.453126-19.53125-26.613282-20.257813-7.882812.929688-15.28125 4.289063-21.171875 9.605469-18.761719 15.253907-43.394531 21.25-67.066406 16.324219-19.042969-3.164062-31.042969-8.992188-36.476563-17.730469zm0 0"/><path d="m345.769531 391.695312c-33.519531 0-55.464843-6.828124-65.5-20.335937-5.75-7.773437-7.304687-17.875-4.15625-27.015625 6.300781-18.394531 23.3125-30.980469 42.742188-31.625 11.421875.761719 22.28125 5.214844 30.953125 12.6875 15.074218 12.722656 35.210937 17.703125 54.476562 13.472656 16.878906-2.804687 24.097656-7.5 25.242188-10.953125.980468-3.003906-2.246094-7.683593-3.875-9.386719-3.175782-3.15625-3.375-8.222656-.460938-11.617187 2.917969-3.394531 7.957032-3.957031 11.554688-1.296875 3.273437 2.363281 31.828125 23.765625 25.238281 47.496094-5.734375 20.652344-35.292969 32.863281-90.324219 37.453125-9.285156.746093-17.914062 1.121093-25.890625 1.121093zm-53.671875-41.363281c-1.191406 3.8125-.421875 7.960938 2.054688 11.09375 4.976562 6.46875 21.460937 16.632813 76.09375 12.101563 63.144531-5.257813 73.667968-19.191406 75.269531-24.9375.699219-3.65625-.011719-7.445313-1.988281-10.605469-5.433594 8.738281-17.433594 14.566406-36.4375 17.734375-23.671875 4.910156-48.296875-1.085938-67.0625-16.324219-5.890625-5.320312-13.289063-8.679687-21.171875-9.609375-12.175781.710938-22.710938 8.714844-26.65625 20.257813zm0 0"/><path d="m296.292969 425.398438c-2.257813 0-4.554688 0-6.894531 0h-14.652344c-20.476563.148437-38.21875.265624-49.003906-10.441407-6.058594-6.542969-9.179688-15.269531-8.644532-24.167969-.003906-3.121093.28125-6.234374.851563-9.300781.5625-2.996093 2.679687-5.46875 5.554687-6.480469 2.875-1.011718 6.074219-.414062 8.386719 1.570313 2.316406 1.984375 3.398437 5.054687 2.835937 8.050781-.367187 2.03125-.539062 4.09375-.519531 6.160156 0 8.492188 2.710938 11.179688 3.601563 12.058594 5.75 5.707032 20.878906 5.605469 36.863281 5.484375h14.890625c16.007812.113281 31.113281.222657 36.863281-5.484375.851563-.855468 3.601563-3.566406 3.601563-12.058594.023437-2.097656-.152344-4.191406-.519532-6.253906-.832031-4.617187 2.21875-9.042968 6.832032-9.902344 4.609375-.863281 9.054687 2.164063 9.941406 6.769532.566406 3.097656.835938 6.238281.8125 9.386718.53125 8.898438-2.589844 17.632813-8.644531 24.175782-9.601563 9.453125-24.601563 10.433594-42.15625 10.433594zm0 0"/><path d="m153.625 187.746094c-3.761719.003906-7.082031-2.453125-8.175781-6.054688-1.09375-3.597656.300781-7.492187 3.433593-9.578125 37.484376-23.195312 79.449219-38.203125 123.144532-44.03125 3.0625-.457031 6.132812.78125 8.019531 3.234375 1.890625 2.457032 2.300781 5.742188 1.074219 8.585938-1.226563 2.84375-3.898438 4.796875-6.980469 5.109375-41.035156 5.613281-80.460937 19.675781-115.789063 41.300781-1.398437.933594-3.042968 1.433594-4.726562 1.433594zm0 0"/><path d="m162.160156 136.546875c-3.425781-.019531-6.507812-2.089844-7.828125-5.253906-1.316406-3.160157-.613281-6.804688 1.785157-9.253907 1.503906-1.550781 37.460937-36.691406 108.441406-36.691406 4.714844 0 8.535156 3.820313 8.535156 8.53125 0 4.714844-3.820312 8.535156-8.535156 8.535156-63.511719 0-96.066406 31.34375-96.425782 31.660157-1.589843 1.574219-3.734374 2.464843-5.972656 2.472656zm0 0"/></svg>